<svg width="42" height="42" viewBox="0 0 42 42" fill="none" xmlns="http://www.w3.org/2000/svg">
<path d="M29.75 38.5C29.2542 38.5 28.8388 38.332 28.504 37.996C28.1692 37.66 28.0012 37.2447 28 36.75C27.9988 36.2553 28.1668 35.84 28.504 35.504C28.8412 35.168 29.2565 35 29.75 35H35V31.5H29.75C29.2542 31.5 28.8388 31.332 28.504 30.996C28.1692 30.66 28.0012 30.2447 28 29.75C27.9988 29.2553 28.1668 28.84 28.504 28.504C28.8412 28.168 29.2565 28 29.75 28H35V24.5H29.75C29.2542 24.5 28.8388 24.332 28.504 23.996C28.1692 23.66 28.0012 23.2447 28 22.75C27.9988 22.2553 28.1668 21.84 28.504 21.504C28.8412 21.168 29.2565 21 29.75 21H35V17.5H29.75C29.2542 17.5 28.8388 17.332 28.504 16.996C28.1692 16.66 28.0012 16.2447 28 15.75C27.9988 15.2553 28.1668 14.84 28.504 14.504C28.8412 14.168 29.2565 14 29.75 14H35V10.5H29.75C29.2542 10.5 28.8388 10.332 28.504 9.996C28.1692 9.66 28.0012 9.24467 28 8.75C27.9988 8.25533 28.1668 7.84 28.504 7.504C28.8412 7.168 29.2565 7 29.75 7H36.75C37.7125 7 38.5368 7.343 39.2228 8.029C39.9087 8.715 40.2512 9.53867 40.25 10.5V35C40.25 35.9625 39.9076 36.7868 39.2228 37.4728C38.5379 38.1587 37.7137 38.5012 36.75 38.5H29.75ZM8.75 38.5L1.75 19.25L10.5 14V3.5H17.5V14L26.25 19.25L19.25 38.5H8.75Z" fill="#FF5A00"/>
</svg>
