<svg width="41" height="41" viewBox="0 0 41 41" fill="none" xmlns="http://www.w3.org/2000/svg">
<path d="M36.7291 8.7706C36.9592 8.90344 37.1551 9.08811 37.3013 9.30993C37.4475 9.53175 37.54 9.78462 37.5713 10.0484L37.5833 10.25V32.4584C37.5833 32.7582 37.5043 33.0528 37.3544 33.3125C37.2045 33.5722 36.9888 33.7878 36.7291 33.9378C36.4694 34.0877 36.1748 34.1666 35.875 34.1666C35.5751 34.1666 35.2805 34.0877 35.0208 33.9378C33.0851 32.8201 30.9049 32.1942 28.6711 32.1149C26.4374 32.0357 24.2183 32.5056 22.2083 33.4834V7.5611C24.5681 6.67961 27.0937 6.33093 29.6041 6.54004C32.1145 6.74914 34.5476 7.51085 36.7291 8.7706ZM18.7916 7.56281L18.7933 33.4851C16.8626 32.5451 14.7375 32.0734 12.5904 32.1082C10.4433 32.1429 8.3346 32.6831 6.43525 33.6849L5.87663 33.9924L5.70067 34.0676L5.61696 34.0949L5.42904 34.1393L5.32483 34.1564L5.12496 34.1667H5.05321L4.86529 34.1462L4.73375 34.1223L4.54925 34.0676L4.334 33.9719L4.17171 33.8763L4.01967 33.7618L3.91717 33.6661L3.79246 33.5261L3.68313 33.374L3.64554 33.3125L3.59088 33.21L3.51571 33.0341L3.48838 32.9503L3.44396 32.7624L3.42688 32.6582L3.42004 32.5745L3.41663 10.25C3.41663 9.95015 3.49557 9.65556 3.64551 9.39587C3.79545 9.13618 4.0111 8.92053 4.27079 8.7706C6.45241 7.51113 8.88557 6.74971 11.396 6.54091C13.9064 6.3321 16.4319 6.68107 18.7916 7.56281Z" fill="#FF5A00"/>
</svg>
