<svg width="34" height="45" viewBox="0 0 34 45" fill="none" xmlns="http://www.w3.org/2000/svg">
<path d="M5.07231 15.5641C4.8592 15.2143 4.72082 14.8238 4.66594 14.4175C4.61106 14.0112 4.64089 13.5978 4.75353 13.2037C4.83001 12.8764 4.96062 12.5644 5.13992 12.2805L9.27246 6.3456V1.55502C9.272 1.34231 9.3151 1.13178 9.3991 0.936501C9.4831 0.741223 9.60619 0.565368 9.76074 0.419859C9.91529 0.27435 10.098 0.162295 10.2975 0.0906542C10.497 0.0190134 10.709 -0.0106832 10.9205 0.00340916C11.3186 0.0377277 11.6889 0.222351 11.9568 0.520031C12.2246 0.817712 12.37 1.20629 12.3637 1.60738V6.29129L13.378 7.56749C13.8195 8.1234 14.3824 8.56995 15.0233 8.87262C15.6641 9.1753 16.3657 9.32599 17.0739 9.31305C17.7732 9.29319 18.4595 9.11904 19.0843 8.80295C19.709 8.48686 20.2567 8.03658 20.6886 7.48409L21.6372 6.29129V1.55502C21.6368 1.34231 21.6799 1.13178 21.7639 0.936501C21.8479 0.741223 21.971 0.565368 22.1255 0.419859C22.2801 0.27435 22.4628 0.162295 22.6623 0.0906542C22.8618 0.0190134 23.0738 -0.0106832 23.2852 0.00340916C23.6834 0.0377277 24.0537 0.222351 24.3215 0.520031C24.5894 0.817712 24.7348 1.20629 24.7284 1.60738V6.3456L28.8668 12.2805C29.0461 12.5644 29.1767 12.8764 29.2532 13.2037C29.3658 13.5978 29.3956 14.0112 29.3408 14.4175C29.2859 14.8238 29.1475 15.2143 28.9344 15.5641C28.9267 15.5753 28.9196 15.587 28.9131 15.599L26.2354 19.8155C26.1651 19.9262 26.0679 20.0172 25.9531 20.08C25.8382 20.1427 25.7093 20.1752 25.5785 20.1743H8.42239C8.29258 20.1742 8.16488 20.1413 8.05109 20.0786C7.9373 20.0158 7.84108 19.9254 7.7713 19.8155L5.09356 15.599C5.08709 15.587 5.08 15.5753 5.07231 15.5641ZM33.7624 40.6923C33.7544 40.6697 33.7447 40.6476 33.7335 40.6264L25.8277 23.7236C25.7652 23.59 25.666 23.477 25.5418 23.398C25.4176 23.319 25.2735 23.2772 25.1264 23.2775H8.87447C8.72741 23.2772 8.5833 23.319 8.45908 23.398C8.33485 23.477 8.23566 23.59 8.17316 23.7236L0.267431 40.6264C0.256155 40.6476 0.246468 40.6697 0.238451 40.6923C0.070032 41.1003 -0.0108226 41.5394 0.00116167 41.9808C0.0131459 42.4223 0.117699 42.8563 0.308003 43.2544C0.561828 43.7782 0.957348 44.2196 1.44933 44.5283C1.94132 44.837 2.50991 45.0005 3.09008 45H30.9108C31.4907 45.0001 32.0588 44.8365 32.5504 44.5278C33.0421 44.2191 33.4373 43.7779 33.691 43.2544C33.8816 42.8564 33.9865 42.4225 33.9988 41.981C34.0111 41.5396 33.9306 41.1005 33.7624 40.6923Z" fill="#FF5A00"/>
</svg>
