<svg width="45" height="45" viewBox="0 0 45 45" fill="none" xmlns="http://www.w3.org/2000/svg">
<mask id="mask0_39_180" style="mask-type:luminance" maskUnits="userSpaceOnUse" x="7" y="2" width="31" height="41">
<path d="M14.0625 31.875V41.25H30.9375V31.875" stroke="white" stroke-width="2" stroke-linecap="round" stroke-linejoin="round"/>
<path d="M29.939 3.74998H14.9859C8.47779 3.74998 7.98185 8.06717 8.67185 10.35L14.0522 31.875H30.8728C30.8728 31.875 35.2265 15.1715 36.3928 10.35C36.945 8.06717 36.4772 3.73405 29.939 3.74998Z" fill="white" stroke="white" stroke-width="2"/>
<path d="M19.2075 17.8969C20.745 16.0744 21.929 13.5553 22.5694 12.1875C23.6906 13.5553 26.1244 16.9856 26.8931 18.8091C27.854 21.0891 25.4522 23.8247 22.5694 23.8247C19.6875 23.8247 17.2856 20.1769 19.2075 17.8969Z" stroke="black" stroke-width="2" stroke-linecap="round" stroke-linejoin="round"/>
</mask>
<g mask="url(#mask0_39_180)">
<path d="M0 0H45V45H0V0Z" fill="#FF5A00"/>
</g>
</svg>
