<svg width="45" height="45" viewBox="0 0 45 45" fill="none" xmlns="http://www.w3.org/2000/svg">
<path d="M11.25 19.6875C10.5041 19.6875 9.78871 19.9838 9.26126 20.5113C8.73382 21.0387 8.4375 21.7541 8.4375 22.5C8.4375 23.2459 8.73382 23.9613 9.26126 24.4887C9.78871 25.0162 10.5041 25.3125 11.25 25.3125C11.9959 25.3125 12.7113 25.0162 13.2387 24.4887C13.7662 23.9613 14.0625 23.2459 14.0625 22.5C14.0625 21.7541 13.7662 21.0387 13.2387 20.5113C12.7113 19.9838 11.9959 19.6875 11.25 19.6875ZM19.6875 22.5C19.6875 21.7541 19.9838 21.0387 20.5113 20.5113C21.0387 19.9838 21.7541 19.6875 22.5 19.6875C23.2459 19.6875 23.9613 19.9838 24.4887 20.5113C25.0162 21.0387 25.3125 21.7541 25.3125 22.5C25.3125 23.2459 25.0162 23.9613 24.4887 24.4887C23.9613 25.0162 23.2459 25.3125 22.5 25.3125C21.7541 25.3125 21.0387 25.0162 20.5113 24.4887C19.9838 23.9613 19.6875 23.2459 19.6875 22.5ZM30.9375 22.5C30.9375 21.7541 31.2338 21.0387 31.7613 20.5113C32.2887 19.9838 33.0041 19.6875 33.75 19.6875C34.4959 19.6875 35.2113 19.9838 35.7387 20.5113C36.2662 21.0387 36.5625 21.7541 36.5625 22.5C36.5625 23.2459 36.2662 23.9613 35.7387 24.4887C35.2113 25.0162 34.4959 25.3125 33.75 25.3125C33.0041 25.3125 32.2887 25.0162 31.7613 24.4887C31.2338 23.9613 30.9375 23.2459 30.9375 22.5Z" fill="#FF5A00"/>
</svg>
