<svg width="49" height="49" viewBox="0 0 49 49" fill="none" xmlns="http://www.w3.org/2000/svg">
<path d="M14.2916 24.5V26.5416H34.7083V24.5C34.7083 22.878 35.3516 21.3222 36.4972 20.174C37.6428 19.0257 39.197 18.3788 40.819 18.375C40.8167 17.841 40.7689 17.3083 40.6761 16.7825C40.361 15.1982 39.5832 13.7429 38.441 12.6006C37.2987 11.4584 35.8434 10.6806 34.2591 10.3655C33.471 10.2083 32.5237 10.2083 30.625 10.2083H18.375C16.4762 10.2083 15.5289 10.2083 14.7408 10.3655C13.1565 10.6806 11.7012 11.4584 10.5589 12.6006C9.41672 13.7429 8.63889 15.1982 8.32383 16.7825C8.231 17.3083 8.18319 17.841 8.18091 18.375C9.80288 18.3788 11.3571 19.0257 12.5027 20.174C13.6483 21.3222 14.2916 22.878 14.2916 24.5Z" fill="#FF5A00"/>
<path d="M37.6565 36.75H11.3435C10.7897 36.7496 10.2377 36.6866 9.69796 36.5622V38.7917C9.69796 39.1978 9.53663 39.5873 9.24947 39.8744C8.9623 40.1616 8.57282 40.3229 8.16671 40.3229C7.7606 40.3229 7.37112 40.1616 7.08395 39.8744C6.79679 39.5873 6.63546 39.1978 6.63546 38.7917V35.0166C5.83473 34.3356 5.19173 33.4885 4.75105 32.5342C4.31036 31.5798 4.08254 30.541 4.08338 29.4899V24.5C4.08338 23.4171 4.51358 22.3784 5.27936 21.6127C6.04513 20.8469 7.08374 20.4167 8.16671 20.4167C9.24968 20.4167 10.2883 20.8469 11.0541 21.6127C11.8198 22.3784 12.25 23.4171 12.25 24.5V26.95C12.25 27.3832 12.4221 27.7987 12.7284 28.105C13.0347 28.4113 13.4502 28.5834 13.8834 28.5834H35.1167C35.5499 28.5834 35.9653 28.4113 36.2717 28.105C36.578 27.7987 36.75 27.3832 36.75 26.95V24.5C36.75 23.4171 37.1803 22.3784 37.946 21.6127C38.7118 20.8469 39.7504 20.4167 40.8334 20.4167C41.9163 20.4167 42.955 20.8469 43.7207 21.6127C44.4865 22.3784 44.9167 23.4171 44.9167 24.5V29.4899C44.9176 30.541 44.6897 31.5798 44.249 32.5342C43.8084 33.4885 43.1654 34.3356 42.3646 35.0166V38.7917C42.3646 39.1978 42.2033 39.5873 41.9161 39.8744C41.629 40.1616 41.2395 40.3229 40.8334 40.3229C40.4273 40.3229 40.0378 40.1616 39.7506 39.8744C39.4635 39.5873 39.3021 39.1978 39.3021 38.7917V36.5622C38.7624 36.6866 38.2104 36.7496 37.6565 36.75Z" fill="#FF5A00"/>
</svg>
