<svg width="41" height="41" viewBox="0 0 41 41" fill="none" xmlns="http://www.w3.org/2000/svg">
<path d="M24.6 4.09998C23.9235 4.09998 22.9313 4.29473 22.0785 4.90768C21.1765 5.55958 20.5 6.63583 20.5 8.19998V10.7686C20.507 11.1267 20.6181 11.4751 20.8198 11.7711C21.0125 12.0396 21.3445 12.3041 22.0354 12.3041C22.7262 12.3041 23.0584 12.0396 23.2511 11.7711C23.4527 11.4751 23.5638 11.1267 23.5709 10.7686C23.5709 10.4968 23.6788 10.2361 23.8711 10.0438C24.0633 9.85162 24.324 9.74363 24.5959 9.74363C24.8677 9.74363 25.1284 9.85162 25.3206 10.0438C25.5129 10.2361 25.6209 10.4968 25.6209 10.7686C25.6209 11.3611 25.4528 12.2241 24.9157 12.9683C24.3417 13.7678 23.3946 14.3541 22.0354 14.3541C21.3794 14.3541 20.8157 14.2167 20.3462 13.9851C20.0531 16.2647 19.1982 19.3274 16.6993 21.8243C14.473 24.0526 13.3803 26.8119 12.8432 28.9644C12.5563 30.1178 12.3778 31.2956 12.3102 32.4822L12.302 32.7077V32.7713L12.3 32.7918V32.8L12.2959 32.8594C12.2931 32.9182 12.2829 33.0022 12.2651 33.1116C12.2237 33.3779 12.1421 33.6364 12.0232 33.8783C11.8986 34.1464 11.7038 34.3759 11.4595 34.5425C11.2135 34.7065 10.8404 34.85 10.25 34.85C9.38943 34.85 8.55073 34.5792 7.85264 34.0761C7.15455 33.5729 6.63247 32.8629 6.36035 32.0465C6.08823 31.2302 6.07987 30.3489 6.33645 29.5275C6.59302 28.7061 7.10154 27.9863 7.78995 27.47C7.89763 27.3891 7.98833 27.2878 8.05686 27.1718C8.12539 27.0559 8.17041 26.9276 8.18935 26.7942C8.20829 26.6609 8.20078 26.5251 8.16725 26.3946C8.13372 26.2642 8.07482 26.1416 7.99393 26.034C7.91303 25.9263 7.81171 25.8356 7.69576 25.767C7.57982 25.6985 7.45151 25.6535 7.31816 25.6346C7.18481 25.6156 7.04904 25.6231 6.91859 25.6567C6.78815 25.6902 6.66558 25.7491 6.5579 25.83C5.52514 26.6045 4.76231 27.6845 4.37749 28.9167C3.99267 30.149 4.00538 31.4711 4.41382 32.6957C4.82226 33.9204 5.60572 34.9854 6.65318 35.74C7.70064 36.4946 8.959 36.9004 10.25 36.9H26.65V35.875C26.65 35.0447 26.2646 33.7307 25.1473 33.1444C24.6599 32.9008 24.1195 32.7824 23.575 32.8H21.525C21.2531 32.8 20.9924 32.692 20.8002 32.4998C20.6079 32.3075 20.5 32.0468 20.5 31.775C20.5 31.5031 20.6079 31.2424 20.8002 31.0502C20.9924 30.858 21.2531 30.75 21.525 30.75H23.575C23.9358 30.75 24.2774 30.7773 24.6 30.832V25.625C24.6 25.3531 24.7079 25.0924 24.9002 24.9002C25.0924 24.708 25.3531 24.6 25.625 24.6C25.8968 24.6 26.1575 24.708 26.3497 24.9002C26.542 25.0924 26.65 25.3531 26.65 25.625V31.6684C28.2695 32.8369 28.7 34.7803 28.7 35.875V36.9H33.825C34.0968 36.9 34.3575 36.792 34.5497 36.5998C34.742 36.4075 34.85 36.1468 34.85 35.875C34.85 34.0915 34.2432 32.7528 33.1997 31.8836C32.4943 31.3155 31.6473 30.9505 30.75 30.8279V14.35H31.775C32.5905 14.35 33.3726 14.026 33.9493 13.4493C34.526 12.8727 34.85 12.0905 34.85 11.275V8.78013C34.8499 8.42639 34.7583 8.07869 34.5841 7.77084C34.4098 7.46298 34.1589 7.20545 33.8557 7.02328L30.2006 4.82978C29.4041 4.35215 28.4929 4.0999 27.5643 4.09998H24.6Z" fill="#FF5A00"/>
</svg>
